<svg id="Capa_1" data-name="Capa 1" xmlns="http://www.w3.org/2000/svg" viewBox="0 0 832.85 551.15"><defs><style>.cls-1{fill:#fff;}</style></defs><path d="M417.49,283.25h263c7.86,0,8.19-.35,8.18-8.58,0-6.77-.41-13.37,4.16-19.46,4-5.41,8.59-8.92,15.33-9.94,13.88-2.11,23.85,3.46,29.51,15.8,2,4.4,2,10,1.87,15.06-.12,5.47,1.76,7.47,7.18,7.18,6.39-.33,12.82-.36,19.22-.08,21.77,1,38.18,10.94,49.31,29.71,5.64,9.5,11.77,18.73,17.2,28.35,7.1,12.6,13.59,25.53,20.59,38.19,6.61,12,13.57,23.72,20.29,35.63,5.8,10.27,11.42,20.63,17.2,30.91s11.72,20.53,17.49,30.85c2.9,5.18,4.92,11,8.5,15.62,5.6,7.24,12.45,13.5,18.27,20.59,4.27,5.2,7.82,10.84,7.41,18.31-.46,8.66,0,17.37,0,26.05,0,4.72,0,9.08-3.59,13.3-1.62,1.92-.13,6.78.52,10.19s2.87,6.47,2.9,9.71c.23,29-.14,57.9.23,86.85.22,16.58-8.51,27.92-20.48,37.33-8.4,6.61-18.41,9.52-29.28,9.45-18-.11-36,0-54,.12-8.06,0-7.7,1-9.73,8.63-2.29,8.55-6.17,16.82-10.37,24.67-6.37,11.94-16.69,20.41-28.18,27-17.76,10.15-37.6,14-57.21,9.36-22.68-5.42-43-16.45-54.07-38.91a246.09,246.09,0,0,1-9.68-23.52c-1.62-4.41-3.9-6.9-8.91-6.9q-142.36.06-284.73-.09c-5.37,0-6.88,1.86-8.23,7.23a114.11,114.11,0,0,1-10.4,26c-8.25,15.26-21.67,25.53-37.46,31.54-17.16,6.53-34.93,8.14-53.29,2.43-19-5.91-34.61-15.81-45.8-32.31-5.78-8.52-10.66-17.55-11.81-28-.62-5.56-3.69-7.2-8.82-7.15-13.85.15-27.72.42-41.56,0-21-.64-35.54-11.18-44.93-30-3.06-6.14-3.58-12.09-3.58-18.48,0-112.28.24-224.56-.34-336.84-.11-21.58,7.88-37.57,25.57-48.5,6.34-3.91,14.58-6.63,22-6.67,86.85-.45,173.69-.29,260.54-.29Zm-289,221.07h0c0,53.75-.1,107.51.14,161.26,0,6,1.47,12.2,3.15,18,3.35,11.61,11.83,18.68,23.69,19.15,15.28.61,30.59.38,45.88.45,4.16,0,6.52-1.92,6.66-6.37.36-11.28,4.8-21.64,11-30.32,15.31-21.37,35.3-36,63.09-35.85,9.27.05,19.08-.82,27.69,1.81,16.4,5,31.13,13.69,42,27.7,7.46,9.65,14.17,20.09,15.56,32.15,1.14,9.91,1.5,11.48,12.41,10.49.83-.08,1.66,0,2.48,0q105.45-.09,210.89-.18c22.53,0,45.07.1,67.6.11,4.08,0,8.39-.33,8.62-5.74.41-10,4.37-18.6,9.16-27.06,8.6-15.18,21.28-26,36.72-33.38,12.72-6.07,26.63-6.1,40.54-5.78,18.36.41,34,7.32,47.46,19.15,14.08,12.37,24.06,27.39,26.15,46.59.56,5.13,3.58,6.52,8,6.5,19.22-.06,38.45-.15,57.68-.15,7.95,0,14.27-3.55,19.62-9,6.24-6.32,8.83-14.26,8.87-23,.09-14.88,0-29.77,0-44.65,0-9.1.12-18.21-.35-27.29-.55-10.68-5.9-15.81-16.42-15.92-12-.12-24,.16-36,.29-8.2.09-13.05-4.08-13-11.23,0-7,4.59-11.1,12.63-11.13,12.19-.05,24.39,0,36.59.08,16.78,0,17.49-.71,17.1-17.44a21.86,21.86,0,0,0-21.81-21.54q-91.8,0-183.59,0c-10.5,0-16-5.54-16-15.94q0-59.85.06-119.71c0-9.56,4.41-13.81,14-13.74q40.32.29,80.63.51c6.2,0,12.41.16,18.61,0,5.89-.12,7-1.93,4.36-7.32-1.15-2.36-3.08-4.33-4.38-6.63-6.68-11.76-13-23.73-20-35.29-5.33-8.82-13-15.47-23.23-17.89-6.16-1.47-12.72-1.64-19.09-1.64-109,0-217.92.16-326.87,0-88.27-.1-176.53-.6-264.79-.69-5,0-10.7.92-14.88,3.4-12.86,7.66-18.71,19.64-18.7,34.63Q128.55,423.07,128.49,504.32Zm680.85-4.2v.19q29.43,0,58.86,0c7.43,0,14.87.19,22.3.05,1.45,0,3.51-.83,4.11-1.93.51-.93-.38-2.95-1.12-4.22-7-12-14.1-23.88-21-35.88C866.61,448.28,861,438.11,855.23,428c-5.17-9.05-11.1-17.76-15.31-27.24-2.44-5.51-5.65-6.95-10.79-6.91-31.79.22-63.58.48-95.37.58-7.76,0-8.4.42-8.4,8.36,0,30.36,0,60.72-.14,91.08,0,4.38,1.32,6.34,6.06,6.32C757.3,500,783.32,500.12,809.34,500.12Zm-60,272.6c35.67,2.44,61-30.47,61.2-57.86.29-32.46-25.47-62.73-62.29-62.51-34.2.21-59.55,30.74-59.73,59.12C688.3,743,713.53,774.63,749.31,772.72Zm-459.64.06c35,1.4,59.36-29.78,59.26-59.06-.13-36.39-26.82-61.53-60.48-62-35.7-.55-60.76,25.3-60.54,61.68C228.1,744.71,252.57,773,289.67,772.78Z" transform="translate(-109.41 -244.83)"/><path class="cls-1" d="M128.49,504.32q0-81.26,0-162.51c0-15,5.84-27,18.7-34.63,4.18-2.48,9.88-3.4,14.88-3.4,88.26.09,176.52.59,264.79.69,109,.12,217.91-.08,326.87,0,6.37,0,12.93.17,19.09,1.64C783,308.49,790.69,315.14,796,324c7,11.56,13.3,23.53,20,35.29,1.3,2.3,3.23,4.27,4.38,6.63,2.63,5.39,1.53,7.2-4.36,7.32-6.2.13-12.41,0-18.61,0q-40.32-.24-80.63-.51c-9.59-.07-14,4.18-14,13.74q0,59.85-.06,119.71c0,10.4,5.48,15.94,16,15.94q91.78,0,183.59,0A21.86,21.86,0,0,1,924.1,543.6c.39,16.73-.32,17.47-17.1,17.44-12.2,0-24.4-.13-36.59-.08-8,0-12.63,4.17-12.63,11.13,0,7.15,4.84,11.32,13,11.23,12-.13,24-.41,36-.29,10.52.11,15.87,5.24,16.42,15.92.47,9.08.31,18.19.35,27.29.05,14.88.12,29.77,0,44.65,0,8.74-2.63,16.68-8.87,23-5.35,5.41-11.67,9-19.62,9-19.23,0-38.46.09-57.68.15-4.45,0-7.47-1.37-8-6.5-2.09-19.2-12.07-34.22-26.15-46.59-13.47-11.83-29.1-18.74-47.46-19.15-13.91-.32-27.82-.29-40.54,5.78-15.44,7.36-28.12,18.2-36.72,33.38-4.79,8.46-8.75,17.09-9.16,27.06-.23,5.41-4.54,5.74-8.62,5.74-22.53,0-45.07-.12-67.6-.11q-105.45.06-210.89.18c-.82,0-1.65,0-2.48,0-10.91,1-11.27-.58-12.41-10.49-1.39-12.06-8.1-22.5-15.56-32.15-10.83-14-25.56-22.7-42-27.7-8.61-2.63-18.42-1.76-27.69-1.81-27.79-.13-47.78,14.48-63.09,35.85-6.21,8.68-10.65,19-11,30.32-.14,4.45-2.5,6.38-6.66,6.37-15.29-.07-30.6.16-45.88-.45-11.86-.47-20.34-7.54-23.69-19.15-1.68-5.84-3.12-12-3.15-18-.24-53.75-.14-107.51-.14-161.26ZM491.6,465.81v0c7.65,0,15.31.27,22.92-.19,1.88-.12,5.11-2.61,5.16-4.08.43-13.19.49-26.4.1-39.59-.06-2.12-2.82-6-4.36-6-14.22-.14-28.46.24-42.68.79-9.15.35-10.64-.77-10.62-9.71,0-13.84.1-27.68,0-41.53,0-3,.29-6.2-4.8-6-11.32.54-22.66.75-34,.54-7.07-.13-7.68,0-7.63,7.19q.14,21.39.19,42.77c0,4.87-1.26,8.19-7.36,6.5-2.31-.65-4.93-.28-7.4-.26-11.77.13-23.55.68-35.3.31-6.58-.2-7.84.12-7.8,6.19.08,12.18.31,24.37.18,36.55-.06,4.82,1.63,6.58,6.53,6.49,14.66-.25,29.34,0,44-.23,5.24-.1,7.45,1.29,7.26,7-.44,13-.11,26-.44,39-.12,4.72,1.62,6.14,6.14,6,11.36-.23,22.74-.27,34.09,0,4.84.11,6.62-1.45,6.51-6.39-.29-12.8,0-25.62-.27-38.43-.13-5.44,1.9-7.38,7.25-7.16C476.72,466,484.16,465.81,491.6,465.81ZM417.53,583.14v.23c72.35,0,144.7-.13,217.05.2,7.34,0,13-6,12.9-11.33-.14-7-5.72-11.75-13.13-11.43-2.89.13-5.79.1-8.68.1l-426,.2c-6.48,0-12.56,5.26-12.78,11s5.75,11,12.39,11Z" transform="translate(-109.41 -244.83)"/><path class="cls-1" d="M809.34,500.12c-26,0-52-.08-78.06.08-4.74,0-6.08-1.94-6.06-6.32.13-30.36.11-60.72.14-91.08,0-7.94.64-8.33,8.4-8.36,31.79-.1,63.58-.36,95.37-.58,5.14,0,8.35,1.4,10.79,6.91,4.21,9.48,10.14,18.19,15.31,27.24,5.75,10.1,11.38,20.27,17.21,30.33,6.95,12,14.08,23.89,21,35.88.74,1.27,1.63,3.29,1.12,4.22-.6,1.1-2.66,1.91-4.11,1.93-7.43.14-14.87,0-22.3-.05q-29.43,0-58.86,0Z" transform="translate(-109.41 -244.83)"/><path class="cls-1" d="M749.31,772.72c-35.78,1.91-61-29.72-60.82-61.25.18-28.38,25.53-58.91,59.73-59.12,36.82-.22,62.58,30,62.29,62.51C810.26,742.25,785,775.16,749.31,772.72Zm-.44-38.53c12.46-.19,23.24-10.19,23.21-21.56,0-11.75-11.53-22.94-23.82-22.79-11.2.13-23,10.9-22.06,24C726.86,723,737,736.18,748.87,734.19Z" transform="translate(-109.41 -244.83)"/><path class="cls-1" d="M289.67,772.78c-37.1.17-61.57-28.07-61.76-59.42-.22-36.38,24.84-62.23,60.54-61.68,33.66.51,60.35,25.65,60.48,62C349,743,324.68,774.18,289.67,772.78ZM287.32,734c13.25,1.79,24.1-11.44,23.3-21.62-1-12.21-8.07-22.12-21.68-22.09-14.65,0-22.44,9.3-23.45,21.79C264.55,723.55,275.59,734,287.32,734Z" transform="translate(-109.41 -244.83)"/><path d="M491.6,465.81c-7.44,0-14.88.23-22.31-.07-5.35-.22-7.38,1.72-7.25,7.16.3,12.81,0,25.63.27,38.43.11,4.94-1.67,6.5-6.51,6.39-11.35-.26-22.73-.22-34.09,0-4.52.1-6.26-1.32-6.14-6,.33-13,0-26,.44-39,.19-5.7-2-7.09-7.26-7-14.66.27-29.34,0-44,.23-4.9.09-6.59-1.67-6.53-6.49.13-12.18-.1-24.37-.18-36.55,0-6.07,1.22-6.39,7.8-6.19,11.75.37,23.53-.18,35.3-.31,2.47,0,5.09-.39,7.4.26,6.1,1.69,7.37-1.63,7.36-6.5q-.06-21.39-.19-42.77c0-7.16.56-7.32,7.63-7.19,11.33.21,22.67,0,34-.54,5.09-.24,4.78,3,4.8,6,.09,13.85,0,27.69,0,41.53,0,8.94,1.47,10.06,10.62,9.71,14.22-.55,28.46-.93,42.68-.79,1.54,0,4.3,3.84,4.36,6,.39,13.19.33,26.4-.1,39.59,0,1.47-3.28,4-5.16,4.08-7.61.46-15.27.19-22.92.19Z" transform="translate(-109.41 -244.83)"/><path d="M417.53,583.14H199.25c-6.64,0-12.61-5.34-12.39-11s6.3-11,12.78-11l426-.2c2.89,0,5.79,0,8.68-.1,7.41-.32,13,4.45,13.13,11.43.11,5.29-5.56,11.36-12.9,11.33-72.35-.33-144.7-.2-217.05-.2Z" transform="translate(-109.41 -244.83)"/><path d="M748.87,734.19c-11.9,2-22-11.21-22.67-20.31-.94-13.14,10.86-23.91,22.06-24,12.29-.15,23.79,11,23.82,22.79C772.11,724,761.33,734,748.87,734.19Z" transform="translate(-109.41 -244.83)"/><path d="M287.32,734c-11.73,0-22.77-10.43-21.83-21.92,1-12.49,8.8-21.77,23.45-21.79,13.61,0,20.72,9.88,21.68,22.09C311.42,722.54,300.57,735.77,287.32,734Z" transform="translate(-109.41 -244.83)"/></svg>