<svg id="Capa_1" data-name="Capa 1" xmlns="http://www.w3.org/2000/svg" viewBox="0 0 814.94 586.63"><defs><style>.cls-1{fill:#fff;}</style></defs><path d="M529.58,736.09q-70.94,0-141.89-.08c-4.85,0-5.46,2.54-5.46,6.31q.06,28.38,0,56.76c0,9.76-3.59,13.29-13.42,13.27-14.66,0-29.33-.58-44,0S307.12,808,307.2,794.77c.31-54.72.2-109.44.22-164.16,0-34.69-.08-69.37,0-104.06,0-4.46-1.21-6.21-6-6.2q-83.19.28-166.38.21c-5.66,0-13.45-7.38-13.5-13.13q-.23-23.64-.05-47.3a11.39,11.39,0,0,1,9.21-10.88,36.1,36.1,0,0,1,7.17-.78q97.38-.11,194.76-.09c2.75,0,5.51.88,8.26.85,2.06,0,4.12-.85,6.18-1.32-.95-2.06-1.34-4.87-2.94-6.09-15.53-11.81-31.4-23.17-46.87-35.05-11.24-8.63-22-17.92-33-26.79-25.87-20.77-51.87-41.4-77.69-62.23-17.07-13.76-34-27.73-50.85-41.7-11.56-9.55-15.56-21.33-10.87-36,3.09-9.66,11.23-11.6,19.22-13.44,11.54-2.66,21.31,1.86,30.22,8.89,11.72,9.25,23.53,18.38,35.26,27.62C228.45,278,247.43,292.93,266.26,308c19.68,15.77,39.16,31.8,58.82,47.6,13.64,11,27.45,21.71,41.19,32.54a24.59,24.59,0,0,0,15.8,5.7q210.62-.12,421.25,0h113c2.22,0,4.45.24,6.67.2,8.11-.16,13.53,5.2,13.4,14-.37,26-.21,51.94-.26,77.91,0,7,.11,14.1-.06,21.14-.22,8.58-5.23,13.35-13.64,13.36l-159.15,0c-13.61,0-13.57,0-13.57,13.78q0,132.43,0,264.88c0,8.09-4.47,12.9-12.53,13-15.4.12-30.79,0-46.19,0-8.59,0-12.71-3.77-12.73-12.31,0-18.73.07-37.47.22-56.2.05-6.8-.87-7.85-7.47-7.85H529.58Zm.2-215.68c-46.93,0-93.85.08-140.78-.1-5.47,0-7,1.83-7,7.09.23,37.47.22,74.94.25,112.41,0,8.71-.13,17.43-.13,26.15,0,3.64.7,6.34,5.57,6.33q111-.16,222-.08,30.32,0,60.64.15c4.42,0,7.8-1,7.69-6.36s-.22-10.74-.22-16.11q0-60.64.13-121.3c0-7.85-.15-8.17-8-8.17Zm-.63-19.7v0h286c32.64,0,65.28,0,97.92.16,5,0,7.15-1.38,6.64-6.69a142.24,142.24,0,0,1-.13-14.46c.1-15.68.69-13.53-13.2-13.53q-288.78.06-577.55,0-91.24,0-182.5,0c-7,0-8.33,1.46-8.26,8.61.05,5.94.15,11.87.06,17.8-.1,7.47.5,8.16,8.22,8.16Zm119-52.25v0q22.26,0,44.51,0l219.25.26c6.72,0,7.75-1,7.72-7.7,0-7.24-.09-14.47,0-21.7.08-8-.23-8.38-8.46-8.38q-157.77,0-315.53,0-111,0-222-.18c-3.52,0-7.72-.56-10.45-2.5q-19.84-14-39-29c-16.81-13.19-33.19-26.95-50-40.2s-33.64-25.81-50.31-38.91c-20.56-16.16-40.89-32.61-61.45-48.78-3.26-2.56-7-5.3-10.85-6-2.75-.53-7,1.36-9,3.6-2.4,2.72-.41,5.81,2.81,7.65,1.08.62,1.79,1.86,2.78,2.67,18.8,15.16,37.72,30.17,56.39,45.48,13.81,11.34,27.08,23.33,41,34.55,16.79,13.55,34,26.5,51,39.87,15.62,12.33,31.23,24.68,46.54,37.38,11.17,9.27,21.76,19.23,32.84,28.62a13.53,13.53,0,0,0,7.9,3.17Q515.94,448.57,648.11,448.46ZM694.82,640.3h-.1V753.72c0,6.93.84,7.76,7.58,7.69,7.78-.07,15.56-.15,23.34-.13,6.7,0,8-1.32,8-8.17q-.1-113.42-.11-226.83c0-4.33-1.45-6-5.77-6-8.9.18-17.8.32-26.69,0-5-.16-6.37,1.82-6.36,6.54C694.87,564.69,694.82,602.49,694.82,640.3Zm-331.39,2.32h0c0-19.84-.08-39.68,0-59.52q.16-28.92.65-57.82c.06-3.91-2.32-4.74-5.35-4.77-9.45-.09-18.91,0-28.36-.08-4.41,0-6.35,1.76-6.09,6.42q.71,12.48.68,25c-.05,30.4-.28,60.8-.36,91.2q-.16,55.32-.2,110.63c0,5,2.39,7.56,7.42,7.56,5.74,0,11.49-.08,17.24-.11,14.38-.06,14.38-.06,14.38-14.5Zm167.46,46.52v.14q-71.76,0-143.53,0c-3.53,0-5.18,1.27-5.15,4.82q.09,9.47,0,18.92c0,4.47,2,6.07,6.52,6q48.67-.33,97.36-.29,92.63,0,185.26.14c6,0,7.55-1.63,7.54-7.62,0-5.37-.21-10.76.05-16.12.23-4.65-1.63-6.07-6.21-6.06Q601.83,689.26,530.89,689.14Zm-187,106.49v.13c5.18,0,10.35,0,15.53,0,3.81,0,5.92-1.66,5.82-5.67a39.53,39.53,0,0,1,.05-5c.53-5.46-2.24-7.21-7.27-7.09-7.76.19-15.53.17-23.3.1-10.91-.1-11.12.07-10.79,11.11a5,5,0,0,1,0,.55c-.29,4.36,2,5.94,6.09,5.87C334.6,795.57,339.22,795.63,343.84,795.63Zm370.4-17.78v.07c-2.78,0-5.55,0-8.33,0-11.73-.12-11.61-.13-11.3,11.92.1,4.23,1.61,6,5.95,5.87,7-.25,14.06-.28,21.08-.16,12.22.21,12,.28,12.21-11.8.06-4.81-1.9-6.19-6.3-6S718.67,777.85,714.24,777.85Z" transform="translate(-121.42 -225.82)"/><path class="cls-1" d="M529.78,520.42H670c7.84,0,8,.32,8,8.17q-.12,60.64-.13,121.3c0,5.37.11,10.74.22,16.11s-3.27,6.38-7.69,6.36q-30.32-.12-60.64-.15-111,0-222,.08c-4.87,0-5.56-2.69-5.57-6.33,0-8.72.14-17.44.13-26.15,0-37.47,0-74.94-.25-112.41,0-5.26,1.49-7.11,7-7.09C435.93,520.49,482.85,520.41,529.78,520.42Z" transform="translate(-121.42 -225.82)"/><path class="cls-1" d="M529.15,500.71H146.35c-7.72,0-8.32-.69-8.22-8.16.09-5.93,0-11.86-.06-17.8-.07-7.15,1.3-8.61,8.26-8.61q91.26,0,182.5,0,288.78,0,577.55,0c13.89,0,13.3-2.15,13.2,13.53a142.24,142.24,0,0,0,.13,14.46c.51,5.31-1.61,6.72-6.64,6.69-32.64-.19-65.28-.15-97.92-.16h-286Z" transform="translate(-121.42 -225.82)"/><path class="cls-1" d="M648.11,448.46q-132.17,0-264.33-.13a13.53,13.53,0,0,1-7.9-3.17c-11.08-9.39-21.67-19.35-32.84-28.62-15.31-12.7-30.92-25.05-46.54-37.38-16.93-13.37-34.19-26.32-51-39.87-13.9-11.22-27.17-23.21-41-34.55-18.67-15.31-37.59-30.32-56.39-45.48-1-.81-1.7-2.05-2.78-2.67-3.22-1.84-5.21-4.93-2.81-7.65,2-2.24,6.22-4.13,9-3.6,3.87.75,7.59,3.49,10.85,6,20.56,16.17,40.89,32.62,61.45,48.78,16.67,13.1,33.67,25.78,50.31,38.91s33.15,27,50,40.2q19.11,15,39,29c2.73,1.94,6.93,2.5,10.45,2.5q111,.25,222,.18,157.77,0,315.53,0c8.23,0,8.54.37,8.46,8.38-.06,7.23,0,14.46,0,21.7,0,6.67-1,7.71-7.72,7.7l-219.25-.26q-22.26,0-44.51,0Z" transform="translate(-121.42 -225.82)"/><path class="cls-1" d="M694.82,640.3c0-37.81,0-75.61-.08-113.42,0-4.72,1.37-6.7,6.36-6.54,8.89.3,17.79.16,26.69,0,4.32-.09,5.77,1.63,5.77,6q-.06,113.41.11,226.83c0,6.85-1.33,8.18-8,8.17-7.78,0-15.56.06-23.34.13-6.74.07-7.58-.76-7.58-7.69V640.3Z" transform="translate(-121.42 -225.82)"/><path class="cls-1" d="M363.43,642.62v104c0,14.44,0,14.44-14.38,14.5-5.75,0-11.5.11-17.24.11-5,0-7.43-2.59-7.42-7.56q.12-55.32.2-110.63c.08-30.4.31-60.8.36-91.2q0-12.51-.68-25c-.26-4.66,1.68-6.45,6.09-6.42,9.45.06,18.91,0,28.36.08,3,0,5.41.86,5.35,4.77q-.45,28.9-.65,57.82c-.1,19.84,0,39.68,0,59.52Z" transform="translate(-121.42 -225.82)"/><path class="cls-1" d="M530.89,689.14q70.93,0,141.86-.08c4.58,0,6.44,1.41,6.21,6.06-.26,5.36-.05,10.75-.05,16.12,0,6-1.59,7.63-7.54,7.62q-92.62-.08-185.26-.14-48.69,0-97.36.29c-4.53,0-6.56-1.57-6.52-6q.07-9.47,0-18.92c0-3.55,1.62-4.83,5.15-4.82q71.76.1,143.53,0Z" transform="translate(-121.42 -225.82)"/><path class="cls-1" d="M343.84,795.63c-4.62,0-9.24-.06-13.86,0-4.06.07-6.38-1.51-6.09-5.87a5,5,0,0,0,0-.55c-.33-11-.12-11.21,10.79-11.11,7.77.07,15.54.09,23.3-.1,5-.12,7.8,1.63,7.27,7.09a39.53,39.53,0,0,0-.05,5c.1,4-2,5.68-5.82,5.67-5.18,0-10.35,0-15.53,0Z" transform="translate(-121.42 -225.82)"/><path class="cls-1" d="M714.24,777.85c4.43,0,8.88.18,13.31-.06s6.36,1.15,6.3,6c-.18,12.08,0,12-12.21,11.8-7-.12-14.06-.09-21.08.16-4.34.16-5.85-1.64-5.95-5.87-.31-12.05-.43-12,11.3-11.92,2.78,0,5.55,0,8.33,0Z" transform="translate(-121.42 -225.82)"/></svg>