<svg id="Capa_1" data-name="Capa 1" xmlns="http://www.w3.org/2000/svg" viewBox="0 0 920.53 775.53"><defs><style>.cls-1{fill:#fff;}</style></defs><path d="M170.25,398.35c14.19,4.59,28.46,9,42.54,13.87,4.83,1.68,8.74.95,13.19-1,36.37-16.13,70.73-35.58,101.67-60.76,2.45-2,4.74-4.19,7.13-6.27,4.74-4.11,10.56-4.16,14.28-.16,4,4.34,3.95,10.41-1.3,14.49-15.09,11.75-30,23.89-46,34.29-15.14,9.84-31.59,17.67-47.45,26.39a14.24,14.24,0,0,0-1.71,1.51,751.21,751.21,0,0,0,99.88,12.46c2.35-6.85,3.75-13.48,6.76-19.27,13.74-26.51,36.09-40,65.64-41.91,16.87-1.07,32.41,3.17,46,13.41a50.34,50.34,0,0,1,10.72,11c9.4,13.45,6.63,27.75-7.14,36.71-14.87,9.68-31.45,12.06-48.83,10.22-2-.21-4-.46-5.95-.64-.81-.08-1.62,0-2.7,0-1.88,5.12-.23,9.49,3.13,12.85a45.41,45.41,0,0,0,11.12,8.27c26.18,13.38,55,18.34,83.9,26.18,0-2.6,0-4.5,0-6.4-.11-55-.28-110-.23-165,0-4.46-1.64-7.27-4.62-10.27-12.62-12.7-16.37-32.14-9.62-48s22.75-26.18,40.35-26.19a43.63,43.63,0,0,1,40.62,26.51c7,16.48,2.9,35.35-10.31,48.78-1.65,1.68-3.2,4.39-3.21,6.63q-.26,86-.11,172c0,1.15.12,2.29.22,4.09,12.06-3.37,24-6.15,35.56-10.05,15.57-5.24,30.91-11.16,46.19-17.2,3.93-1.55,7.49-4.35,10.77-7.1,4.32-3.63,6.29-8.49,5.36-15-2.56.19-5.13.28-7.67.57-15.9,1.82-31.14,0-45.59-7.44-24-12.34-19.34-34.23-6.19-46.23C621.16,376.39,638.51,371,658,372c26.23,1.34,46.75,12.91,61.53,34.55a59.11,59.11,0,0,1,9.67,26.65,796.82,796.82,0,0,0,99.89-12.4,16.6,16.6,0,0,0-2.44-1.85,388,388,0,0,1-91.54-60.05c-4.9-4.29-5.54-10.27-1.77-14.55s9.59-4.38,14.58,0c30.2,26.71,64.72,46.51,100.87,63.93,9.51,4.58,18,5.67,27.8,1.79,10.65-4.21,21.7-7.39,32.56-11.06a10.56,10.56,0,0,0,2-1.06c-21.3-7.86-42.88-15.53-64.21-23.84-10.05-3.92-19.66-9-29.36-13.72-6.21-3-8.24-8.71-5.49-14s8-6.66,14.54-3.4C862,360.6,898.91,374.16,937,384.63a7.32,7.32,0,0,0,4.72-.28c12.16-5.94,23.89-12.65,33.19-22.68,3-3.22,4.91-7.45,8.12-12.48-10.74-1.59-19.56-3-28.41-4.19-70.44-9.24-136.52-31.22-198.05-66.95-16.21-9.42-32.6-18.73-51-23.71-12.78-3.47-25.51-4.66-38.31-.28-8.82,3-14.16,10.12-14.25,20.63-.08,9,.92,17.94,1.36,26.91.27,5.32.6,10.65.46,16-.12,4.87-3.49,8.06-8.17,8.46-5.39.45-10.14-1.9-10.34-6.38-.83-18.7-5.66-37.34-1.15-56.13,4.3-17.88,18-29.19,36.21-31.59,25-3.31,47.42,4.44,69.06,15.26,18.89,9.45,37.18,20.05,56,29.64,46.32,23.59,95.44,38.51,146.76,46.37q18.74,2.87,37.47,5.73a22.25,22.25,0,0,1,3.37.87c16,5.09,21.37,17.15,14.35,32.46-4.14,9-11.07,15.75-18.69,21.8-20.34,16.14-43.75,26.45-67.93,35.16-36.59,13.19-74.36,21.58-112.87,26.6-23.08,3-46.25,5.21-69.57,7.8-6.31,35.2-30.13,56-61,70-14.44,6.57-29.81,11.11-45.12,16.7,18.23,20,22.74,44.39,16.67,70.76-6.12,26.57-24.22,44.48-45.92,59.33,35,34.16,25.11,85-13.06,116.32,29.39,36.82,18.5,69.91-9.42,101.12,4.08,5.69,8.77,11,12,17,13,24.2,7,48.16-15.33,64a8.23,8.23,0,0,0-2.94,5.53c-.39,7.15-.2,14.33-.31,21.49-.09,6.64-4.09,11-9.84,10.75s-9.12-4.23-9-10.82c.35-20.5.7-41,1.2-61.49.14-5.82-1.84-10.64-5.47-15.28-5.35,5.72-6.9,12.22-6.71,19.5.49,18,.74,36,1.07,54,0,1.83.06,3.67-.08,5.49-.38,4.89-3.43,8-8.18,8.51-4.18.44-8.69-2.07-9.61-6.3s-.78-8.57-1-12.87a24.17,24.17,0,0,1,0-4.5c1-8.27-1.31-14-8.73-19.47-19.33-14.33-19.24-41.91-8.95-60.88,3.53-6.49,8.53-12.18,12.88-18.26-33.92-28.13-41.12-67.14-12.46-98-41.23-34.52-40.68-86.44-10.53-115.09-7-5.83-14.35-11.26-20.86-17.6-17.45-17-27.32-37.32-26.52-62.33.59-18.74,7.63-34.51,20-48.21.89-1,1.8-1.95,2.67-2.95.08-.08,0-.31,0,.09-15.41-5.14-30.82-9.65-45.75-15.43-21-8.11-39.42-20.11-52.64-38.92-6.3-9-10.81-18.74-12.16-29.7-.42-3.44-2.41-3.24-4.83-3.41-42.71-3-85.14-8-126.84-18-36.67-8.8-72.27-20.54-104.83-40.11-10.6-6.38-20.67-13.49-28.48-23.29-4.87-6.1-8.22-12.78-8.3-20.91s3.2-14.35,10.36-17.29a84,84,0,0,1,22-5.83c71.19-8.12,137.91-29.54,199.89-65.68,18.83-11,38.16-21,59.34-27a89.05,89.05,0,0,1,43.45-1.59c16.95,3.67,30.19,17.48,31.81,34.85.91,9.86.15,19.9-.14,29.85-.18,6.49-.69,13-1.37,19.43s-4.22,9.21-10.37,8.88c-5.53-.3-8.86-3.78-8.6-10.06.46-11.13,1.48-22.25,2-33.38a51.29,51.29,0,0,0-.52-11.95c-2.27-11.87-9.13-16.92-23.52-19-16.55-2.35-31.89,2-46.37,8.9-18.28,8.75-36,18.62-53.87,28.29a481.83,481.83,0,0,1-150.6,51.93c-15.41,2.6-30.91,4.66-46.36,7-1.48.22-2.92.69-4.39.9-3.12.46-3.7,2.4-2.11,4.57,3.42,4.65,6.52,9.92,11,13.34,8.28,6.35,17.37,11.67,26.31,17.12,1.55.95,4.14,1,6,.49a568.78,568.78,0,0,0,111.37-41.73c6-3,11.57-1.32,14.16,3.84s.43,10.82-5.66,13.94c-28,14.38-57.47,25.26-87.52,34.55-2.21.69-4.41,1.4-6.62,2.1ZM526.77,763.21c-3.19-4.67-6.74-8.75-9-13.44-10.13-20.6-10-39.54,7.91-56.42a74.61,74.61,0,0,1,9.1-7.79c10.91-7.32,21.89-14.56,33.06-21.48,13.18-8.17,26.3-16.29,36.89-27.94,15.43-17,21.72-36.5,16.38-58.95-4.38-18.42-16.74-31-32.36-40.77-18.88-11.75-40-17.7-61.19-23.56-27.85-7.7-55.8-15-83.55-23.09-12.14-3.53-23.75-8.71-33.77-16.77-16.49-13.25-18.11-36.12-3.66-49.91,3.11-3,6.4-4,10.43-2.4,13.77,5.62,27.47,4,40.84-1.11,3.53-1.35,8.64-4.69,8.78-7.34.17-3.38-3.94-7-6.25-10.48-.25-.39-.79-.59-1.2-.88-21.67-15.49-56.59-11-74.07,9.54-6.26,7.36-11.12,15.37-12.11,25.24-1.88,18.56,3.95,34.44,16.83,47.79s28.79,22.24,46.34,27.44c28,8.31,56.38,15.39,84.53,23.26,17.91,5,36,9.79,51.94,19.9,25.66,16.25,31.21,45.21,11.84,68.57-7.94,9.58-18.37,17.28-28.36,24.93-16.63,12.74-34.46,24-50.64,37.24-31,25.41-19.6,67.31,11,87.19ZM580,508.94c8.06,4.6,16.62,9.57,25.32,14.31,1.06.58,2.88.2,4.2-.2,12.25-3.68,24.61-7.06,36.65-11.33,18.88-6.69,36-16.4,49.59-31.56,15.84-17.66,19.47-46.48,6.51-64.14-14.31-19.49-33.69-26.3-56.81-23.8a42.35,42.35,0,0,0-26.35,13c-5.22,5.45-4.61,9.79,2.16,12.93,14.07,6.51,28.66,8.41,43.54,2.79,4.91-1.86,8.56-.94,12,2.9,12.06,13.44,12.3,30.49.53,44.33-7.7,9.05-17.78,14.73-28.64,18.48C625.85,494.61,602.67,501.67,580,508.94ZM549.24,498.4v-7.22q0-91.23-.1-182.45c0-5.33,1.64-9,6.27-12,8.47-5.48,12.23-18.24,8.74-27.54-3.77-10-12.93-15.84-24.33-15.42-9.58.35-19.26,7.89-21.87,17-2.74,9.56,1.47,21.18,10.14,26.61a11.28,11.28,0,0,1,5.62,9.87c.1,2.16.09,4.33.09,6.49q.12,88,.22,176v5ZM524,869.51c-2-6.58-4.18-13.14-6.11-19.76-4.36-14.88-1.64-28.38,8.67-40a189.32,189.32,0,0,1,15.63-15.4c11.28-10.09,23.05-19.65,34.15-29.93,14.31-13.26,20.36-30,19-49.42-1-14.31-9-24.49-19.38-33.64l-17.83,12c1.68,2,3,3.7,4.42,5.31,9.55,10.82,11.34,23.16,7.72,36.82-3.68,13.85-12.52,24-22.9,33.11-10.61,9.35-21.49,18.43-31.67,28.23-7.62,7.34-13.46,16.23-14.78,27.09C498.47,844.1,512.18,856.36,524,869.51Zm-6.45-316.72c-9.9-2.57-18.33-4.87-26.82-6.87a6.1,6.1,0,0,0-4.54,1.18c-20.53,16.4-30.45,39.92-21.25,66.38,6.93,19.94,22.5,32.46,39.15,43.85a2.89,2.89,0,0,0,2.62.09c5.59-3.77,11.09-7.68,15.65-10.87-8-8-16.76-15.14-23.55-23.79C482,601.45,485.37,577.92,506.57,561,509.66,558.51,512.9,556.23,517.52,552.79Zm36.37,254.78c16.79,13.54,15.31,30.22,8.22,47-3.35,7.92-9,15.13-14.58,21.79-7.08,8.36-15.4,15.66-22.85,23.74-5.66,6.13-10.45,12.91-12.31,21.35-1.91,8.63-.36,17.38,4.31,22a13,13,0,0,0,.16-2.05c-1.7-16.59,5-29.66,16.55-41,8.88-8.77,17.41-17.91,25.86-27.11,9.21-10,17-21,19.45-34.77,2.79-15.45-2.26-28.27-13-39.45ZM543.16,634.13c1.57-2.34,5-5.08,5.05-7.9.44-19.32.2-38.65.14-58,0-4.85-2.6-7.4-7.45-7.58-3.59-.13-6.76,3.55-6.8,8-.13,16.66.29,33.35-.58,50C533.14,625.94,534.53,630.9,543.16,634.13Zm-.63,71.25c-5.92,3.68-8.64,8.72-7.75,15.85a50,50,0,0,1,0,12.93c-.94,6.78,2.33,11.29,7.1,15.7,3.74-4.45,7.13-8.57,6.5-15a80.42,80.42,0,0,1,.2-16.92C549.2,712.31,547.61,708.26,542.53,705.38Zm-1.46,115.68c-8.17,8.59-8.6,23.81-1,36.08C549.58,840.87,551.32,827.47,541.07,821.06Zm26.09-208.13c7.23-6.6,10.85-17.37,8.77-26.06-1.15-4.82-3.49-8.93-8.77-11.64ZM554.38,905.39c10.71,11,12.88,24.4,11.16,40,7.5-10.52,7.69-21.62,1.05-33-2.27-3.91-5.3-7.37-8.2-11.34ZM514.52,580.64c-9.85,7.57-7.79,24.47,0,30.26Z" transform="translate(-80.9 -231.11)"/><path class="cls-1" d="M526.77,763.21,516.41,772c-30.58-19.88-42-61.78-11-87.19,16.18-13.27,34-24.5,50.64-37.24,10-7.65,20.42-15.35,28.36-24.93,19.37-23.36,13.82-52.32-11.84-68.57-16-10.11-34-14.89-51.94-19.9-28.15-7.87-56.52-14.95-84.53-23.26-17.55-5.2-33.42-14.05-46.34-27.44S371.07,454.22,373,435.66c1-9.87,5.85-17.88,12.11-25.24,17.48-20.52,52.4-25,74.07-9.54.41.29.95.49,1.2.88,2.31,3.48,6.42,7.1,6.25,10.48-.14,2.65-5.25,6-8.78,7.34-13.37,5.11-27.07,6.73-40.84,1.11-4-1.65-7.32-.57-10.43,2.4-14.45,13.79-12.83,36.66,3.66,49.91,10,8.06,21.63,13.24,33.77,16.77,27.75,8.06,55.7,15.39,83.55,23.09,21.16,5.86,42.31,11.81,61.19,23.56,15.62,9.73,28,22.35,32.36,40.77,5.34,22.45-.95,42-16.38,58.95-10.59,11.65-23.71,19.77-36.89,27.94-11.17,6.92-22.15,14.16-33.06,21.48a74.61,74.61,0,0,0-9.1,7.79c-17.93,16.88-18,35.82-7.91,56.42C520,754.46,523.58,758.54,526.77,763.21Z" transform="translate(-80.9 -231.11)"/><path class="cls-1" d="M580,508.94c22.65-7.27,45.83-14.33,68.71-22.25,10.86-3.75,20.94-9.43,28.64-18.48,11.77-13.84,11.53-30.89-.53-44.33-3.45-3.84-7.1-4.76-12-2.9-14.88,5.62-29.47,3.72-43.54-2.79-6.77-3.14-7.38-7.48-2.16-12.93a42.35,42.35,0,0,1,26.35-13c23.12-2.5,42.5,4.31,56.81,23.8,13,17.66,9.33,46.48-6.51,64.14-13.58,15.16-30.71,24.87-49.59,31.56-12,4.27-24.4,7.65-36.65,11.33-1.32.4-3.14.78-4.2.2C596.64,518.51,588.08,513.54,580,508.94Z" transform="translate(-80.9 -231.11)"/><path class="cls-1" d="M549.24,498.4,534,494.76v-5q-.1-88-.22-176c0-2.16,0-4.33-.09-6.49a11.28,11.28,0,0,0-5.62-9.87C519.42,292,515.21,280.36,518,270.8c2.61-9.14,12.29-16.68,21.87-17,11.4-.42,20.56,5.38,24.33,15.42,3.49,9.3-.27,22.06-8.74,27.54-4.63,3-6.28,6.67-6.27,12q.17,91.23.1,182.45Z" transform="translate(-80.9 -231.11)"/><path class="cls-1" d="M524,869.51c-11.79-13.15-25.5-25.41-23.05-45.57,1.32-10.86,7.16-19.75,14.78-27.09,10.18-9.8,21.06-18.88,31.67-28.23,10.38-9.14,19.22-19.26,22.9-33.11,3.62-13.66,1.83-26-7.72-36.82-1.41-1.61-2.74-3.29-4.42-5.31l17.83-12c10.4,9.15,18.4,19.33,19.38,33.64,1.33,19.42-4.72,36.16-19,49.42-11.1,10.28-22.87,19.84-34.15,29.93a189.32,189.32,0,0,0-15.63,15.4c-10.31,11.62-13,25.12-8.67,40C519.79,856.37,521.93,862.93,524,869.51Z" transform="translate(-80.9 -231.11)"/><path class="cls-1" d="M517.52,552.79c-4.62,3.44-7.86,5.72-10.95,8.19-21.2,16.94-24.53,40.47-7.79,61.78,6.79,8.65,15.52,15.78,23.55,23.79-4.56,3.19-10.06,7.1-15.65,10.87a2.89,2.89,0,0,1-2.62-.09c-16.65-11.39-32.22-23.91-39.15-43.85-9.2-26.46.72-50,21.25-66.38a6.1,6.1,0,0,1,4.54-1.18C499.19,547.92,507.62,550.22,517.52,552.79Z" transform="translate(-80.9 -231.11)"/><path class="cls-1" d="M553.89,807.57l11.83-8.52c10.72,11.18,15.77,24,13,39.45-2.5,13.81-10.24,24.75-19.45,34.77-8.45,9.2-17,18.34-25.86,27.11-11.51,11.36-18.25,24.43-16.55,41a13,13,0,0,1-.16,2.05c-4.67-4.66-6.22-13.41-4.31-22,1.86-8.44,6.65-15.22,12.31-21.35,7.45-8.08,15.77-15.38,22.85-23.74,5.63-6.66,11.23-13.87,14.58-21.79C569.2,837.79,570.68,821.11,553.89,807.57Z" transform="translate(-80.9 -231.11)"/><path class="cls-1" d="M543.16,634.13c-8.63-3.23-10-8.19-9.64-15.49.87-16.62.45-33.31.58-50,0-4.45,3.21-8.13,6.8-8,4.85.18,7.43,2.73,7.45,7.58.06,19.33.3,38.66-.14,58C548.14,629.05,544.73,631.79,543.16,634.13Z" transform="translate(-80.9 -231.11)"/><path class="cls-1" d="M542.53,705.38c5.08,2.88,6.67,6.93,6,12.56a80.42,80.42,0,0,0-.2,16.92c.63,6.43-2.76,10.55-6.5,15-4.77-4.41-8-8.92-7.1-15.7a50,50,0,0,0,0-12.93C533.89,714.1,536.61,709.06,542.53,705.38Z" transform="translate(-80.9 -231.11)"/><path class="cls-1" d="M541.07,821.06c10.25,6.41,8.51,19.81-1,36.08C532.47,844.87,532.9,829.65,541.07,821.06Z" transform="translate(-80.9 -231.11)"/><path class="cls-1" d="M567.16,612.93v-37.7c5.28,2.71,7.62,6.82,8.77,11.64C578,595.56,574.39,606.33,567.16,612.93Z" transform="translate(-80.9 -231.11)"/><path class="cls-1" d="M554.38,905.39l4-4.36c2.9,4,5.93,7.43,8.2,11.34,6.64,11.4,6.45,22.5-1.05,33C567.26,929.79,565.09,916.36,554.38,905.39Z" transform="translate(-80.9 -231.11)"/><path class="cls-1" d="M514.52,580.64V610.9C506.73,605.11,504.67,588.21,514.52,580.64Z" transform="translate(-80.9 -231.11)"/></svg>